<mxfile host="app.diagrams.net" modified="2021-06-08T14:37:36.374Z" agent="5.0 (Macintosh; Intel Mac OS X 10_15_7) AppleWebKit/537.36 (KHTML, like Gecko) Chrome/91.0.4472.77 Safari/537.36" etag="dcYYkqghZ_Hbiz9geWeh" version="14.7.6" type="github">
  <diagram id="R2lEEEUBdFMjLlhIrx00" name="Page-1">
    <mxGraphModel dx="652" dy="408" grid="1" gridSize="10" guides="1" tooltips="1" connect="1" arrows="1" fold="1" page="1" pageScale="1" pageWidth="850" pageHeight="1100" math="0" shadow="0" extFonts="Permanent Marker^https://fonts.googleapis.com/css?family=Permanent+Marker">
      <root>
        <mxCell id="0" />
        <mxCell id="1" parent="0" />
        <mxCell id="C-vyLk0tnHw3VtMMgP7b-1" value="" style="edgeStyle=entityRelationEdgeStyle;endArrow=ERzeroToMany;startArrow=ERone;endFill=1;startFill=0;exitX=1.004;exitY=0.345;exitDx=0;exitDy=0;exitPerimeter=0;" parent="1" source="C-vyLk0tnHw3VtMMgP7b-27" edge="1">
          <mxGeometry width="100" height="100" relative="1" as="geometry">
            <mxPoint x="190" y="165" as="sourcePoint" />
            <mxPoint x="270" y="165" as="targetPoint" />
          </mxGeometry>
        </mxCell>
        <mxCell id="C-vyLk0tnHw3VtMMgP7b-23" value="Residents" style="shape=table;startSize=30;container=1;collapsible=1;childLayout=tableLayout;fixedRows=1;rowLines=0;fontStyle=1;align=center;resizeLast=1;" parent="1" vertex="1">
          <mxGeometry x="40" y="80" width="170" height="200" as="geometry" />
        </mxCell>
        <mxCell id="C-vyLk0tnHw3VtMMgP7b-27" value="" style="shape=partialRectangle;collapsible=0;dropTarget=0;pointerEvents=0;fillColor=none;points=[[0,0.5],[1,0.5]];portConstraint=eastwest;top=0;left=0;right=0;bottom=0;" parent="C-vyLk0tnHw3VtMMgP7b-23" vertex="1">
          <mxGeometry y="30" width="170" height="160" as="geometry" />
        </mxCell>
        <mxCell id="C-vyLk0tnHw3VtMMgP7b-28" value="name &#xa;birthday&#xa;gender &#xa;height&#xa;weight&#xa;allergies&#xa;medicalHitory&#xa;preference&#xa;lifeHistory&#xa;remarks" style="shape=partialRectangle;overflow=hidden;connectable=0;fillColor=none;top=0;left=0;bottom=0;right=0;" parent="C-vyLk0tnHw3VtMMgP7b-27" vertex="1">
          <mxGeometry width="90" height="160" as="geometry" />
        </mxCell>
        <mxCell id="C-vyLk0tnHw3VtMMgP7b-29" value="str&#xa;date&#xa;str&#xa;int&#xa;int&#xa;str&#xa;str&#xa;str&#xa;str&#xa;str" style="shape=partialRectangle;overflow=hidden;connectable=0;fillColor=none;top=0;left=0;bottom=0;right=0;align=left;spacingLeft=6;" parent="C-vyLk0tnHw3VtMMgP7b-27" vertex="1">
          <mxGeometry x="90" width="80" height="160" as="geometry" />
        </mxCell>
        <mxCell id="iqtrtNtOU-YQ3n1kmFNO-4" value="Meal" style="shape=table;startSize=30;container=1;collapsible=1;childLayout=tableLayout;fixedRows=1;rowLines=0;fontStyle=1;align=center;resizeLast=1;" vertex="1" parent="1">
          <mxGeometry x="270" y="80" width="170" height="200" as="geometry" />
        </mxCell>
        <mxCell id="iqtrtNtOU-YQ3n1kmFNO-5" value="" style="shape=partialRectangle;collapsible=0;dropTarget=0;pointerEvents=0;fillColor=none;points=[[0,0.5],[1,0.5]];portConstraint=eastwest;top=0;left=0;right=0;bottom=0;" vertex="1" parent="iqtrtNtOU-YQ3n1kmFNO-4">
          <mxGeometry y="30" width="170" height="160" as="geometry" />
        </mxCell>
        <mxCell id="iqtrtNtOU-YQ3n1kmFNO-6" value="&#xa;staple&#xa;side dish&#xa;remarks&#xa;" style="shape=partialRectangle;overflow=hidden;connectable=0;fillColor=none;top=0;left=0;bottom=0;right=0;verticalAlign=middle;" vertex="1" parent="iqtrtNtOU-YQ3n1kmFNO-5">
          <mxGeometry width="90" height="160" as="geometry" />
        </mxCell>
        <mxCell id="iqtrtNtOU-YQ3n1kmFNO-7" value="str&#xa;str&#xa;str" style="shape=partialRectangle;overflow=hidden;connectable=0;fillColor=none;top=0;left=0;bottom=0;right=0;align=left;spacingLeft=6;verticalAlign=middle;" vertex="1" parent="iqtrtNtOU-YQ3n1kmFNO-5">
          <mxGeometry x="90" width="80" height="160" as="geometry" />
        </mxCell>
        <mxCell id="iqtrtNtOU-YQ3n1kmFNO-8" value="excretion" style="shape=table;startSize=30;container=1;collapsible=1;childLayout=tableLayout;fixedRows=1;rowLines=0;fontStyle=1;align=center;resizeLast=1;" vertex="1" parent="1">
          <mxGeometry x="520" y="80" width="170" height="200" as="geometry" />
        </mxCell>
        <mxCell id="iqtrtNtOU-YQ3n1kmFNO-9" value="" style="shape=partialRectangle;collapsible=0;dropTarget=0;pointerEvents=0;fillColor=none;points=[[0,0.5],[1,0.5]];portConstraint=eastwest;top=0;left=0;right=0;bottom=0;" vertex="1" parent="iqtrtNtOU-YQ3n1kmFNO-8">
          <mxGeometry y="30" width="170" height="160" as="geometry" />
        </mxCell>
        <mxCell id="iqtrtNtOU-YQ3n1kmFNO-10" value="amount&#xa;" style="shape=partialRectangle;overflow=hidden;connectable=0;fillColor=none;top=0;left=0;bottom=0;right=0;" vertex="1" parent="iqtrtNtOU-YQ3n1kmFNO-9">
          <mxGeometry width="90" height="160" as="geometry" />
        </mxCell>
        <mxCell id="iqtrtNtOU-YQ3n1kmFNO-11" value="str&#xa;date&#xa;str&#xa;int&#xa;int&#xa;str&#xa;str&#xa;str&#xa;str&#xa;str" style="shape=partialRectangle;overflow=hidden;connectable=0;fillColor=none;top=0;left=0;bottom=0;right=0;align=left;spacingLeft=6;" vertex="1" parent="iqtrtNtOU-YQ3n1kmFNO-9">
          <mxGeometry x="90" width="80" height="160" as="geometry" />
        </mxCell>
        <mxCell id="iqtrtNtOU-YQ3n1kmFNO-12" value="" style="edgeStyle=entityRelationEdgeStyle;endArrow=ERzeroToMany;startArrow=ERone;endFill=1;startFill=0;exitX=1.004;exitY=0.345;exitDx=0;exitDy=0;exitPerimeter=0;" edge="1" parent="1">
          <mxGeometry width="100" height="100" relative="1" as="geometry">
            <mxPoint x="210.67999999999995" y="375.20000000000005" as="sourcePoint" />
            <mxPoint x="269.9999999999999" y="375" as="targetPoint" />
          </mxGeometry>
        </mxCell>
        <mxCell id="iqtrtNtOU-YQ3n1kmFNO-14" value="食事" style="shape=table;startSize=30;container=1;collapsible=1;childLayout=tableLayout;fixedRows=1;rowLines=0;fontStyle=1;align=center;resizeLast=1;" vertex="1" parent="1">
          <mxGeometry x="270" y="290" width="170" height="200" as="geometry" />
        </mxCell>
        <mxCell id="iqtrtNtOU-YQ3n1kmFNO-15" value="" style="shape=partialRectangle;collapsible=0;dropTarget=0;pointerEvents=0;fillColor=none;points=[[0,0.5],[1,0.5]];portConstraint=eastwest;top=0;left=0;right=0;bottom=0;" vertex="1" parent="iqtrtNtOU-YQ3n1kmFNO-14">
          <mxGeometry y="30" width="170" height="160" as="geometry" />
        </mxCell>
        <mxCell id="iqtrtNtOU-YQ3n1kmFNO-16" value="主食&#xa;副食&#xa;備考&#xa;&#xa;" style="shape=partialRectangle;overflow=hidden;connectable=0;fillColor=none;top=0;left=0;bottom=0;right=0;" vertex="1" parent="iqtrtNtOU-YQ3n1kmFNO-15">
          <mxGeometry width="90" height="160" as="geometry" />
        </mxCell>
        <mxCell id="iqtrtNtOU-YQ3n1kmFNO-17" value="" style="shape=partialRectangle;overflow=hidden;connectable=0;fillColor=none;top=0;left=0;bottom=0;right=0;align=left;spacingLeft=6;" vertex="1" parent="iqtrtNtOU-YQ3n1kmFNO-15">
          <mxGeometry x="90" width="80" height="160" as="geometry" />
        </mxCell>
        <mxCell id="iqtrtNtOU-YQ3n1kmFNO-18" value="Residents" style="shape=table;startSize=30;container=1;collapsible=1;childLayout=tableLayout;fixedRows=1;rowLines=0;fontStyle=1;align=center;resizeLast=1;" vertex="1" parent="1">
          <mxGeometry x="520" y="290" width="170" height="200" as="geometry" />
        </mxCell>
        <mxCell id="iqtrtNtOU-YQ3n1kmFNO-19" value="" style="shape=partialRectangle;collapsible=0;dropTarget=0;pointerEvents=0;fillColor=none;points=[[0,0.5],[1,0.5]];portConstraint=eastwest;top=0;left=0;right=0;bottom=0;" vertex="1" parent="iqtrtNtOU-YQ3n1kmFNO-18">
          <mxGeometry y="30" width="170" height="160" as="geometry" />
        </mxCell>
        <mxCell id="iqtrtNtOU-YQ3n1kmFNO-20" value="name &#xa;birthday&#xa;gender &#xa;height&#xa;weight&#xa;allergies&#xa;medicalHitory&#xa;preference&#xa;lifeHistory&#xa;remarks" style="shape=partialRectangle;overflow=hidden;connectable=0;fillColor=none;top=0;left=0;bottom=0;right=0;" vertex="1" parent="iqtrtNtOU-YQ3n1kmFNO-19">
          <mxGeometry width="90" height="160" as="geometry" />
        </mxCell>
        <mxCell id="iqtrtNtOU-YQ3n1kmFNO-21" value="str&#xa;date&#xa;str&#xa;int&#xa;int&#xa;str&#xa;str&#xa;str&#xa;str&#xa;str" style="shape=partialRectangle;overflow=hidden;connectable=0;fillColor=none;top=0;left=0;bottom=0;right=0;align=left;spacingLeft=6;" vertex="1" parent="iqtrtNtOU-YQ3n1kmFNO-19">
          <mxGeometry x="90" width="80" height="160" as="geometry" />
        </mxCell>
        <mxCell id="iqtrtNtOU-YQ3n1kmFNO-23" value="Residents" style="shape=table;startSize=30;container=1;collapsible=1;childLayout=tableLayout;fixedRows=1;rowLines=0;fontStyle=1;align=center;resizeLast=1;" vertex="1" parent="1">
          <mxGeometry x="40" y="290" width="170" height="200" as="geometry" />
        </mxCell>
        <mxCell id="iqtrtNtOU-YQ3n1kmFNO-24" value="" style="shape=partialRectangle;collapsible=0;dropTarget=0;pointerEvents=0;fillColor=none;points=[[0,0.5],[1,0.5]];portConstraint=eastwest;top=0;left=0;right=0;bottom=0;" vertex="1" parent="iqtrtNtOU-YQ3n1kmFNO-23">
          <mxGeometry y="30" width="170" height="160" as="geometry" />
        </mxCell>
        <mxCell id="iqtrtNtOU-YQ3n1kmFNO-25" value="name &#xa;birthday&#xa;gender &#xa;height&#xa;weight&#xa;allergies&#xa;medicalHitory&#xa;preference&#xa;lifeHistory&#xa;remarks" style="shape=partialRectangle;overflow=hidden;connectable=0;fillColor=none;top=0;left=0;bottom=0;right=0;" vertex="1" parent="iqtrtNtOU-YQ3n1kmFNO-24">
          <mxGeometry width="90" height="160" as="geometry" />
        </mxCell>
        <mxCell id="iqtrtNtOU-YQ3n1kmFNO-26" value="str&#xa;date&#xa;str&#xa;int&#xa;int&#xa;str&#xa;str&#xa;str&#xa;str&#xa;str" style="shape=partialRectangle;overflow=hidden;connectable=0;fillColor=none;top=0;left=0;bottom=0;right=0;align=left;spacingLeft=6;" vertex="1" parent="iqtrtNtOU-YQ3n1kmFNO-24">
          <mxGeometry x="90" width="80" height="160" as="geometry" />
        </mxCell>
        <mxCell id="iqtrtNtOU-YQ3n1kmFNO-29" value="" style="edgeStyle=entityRelationEdgeStyle;endArrow=ERzeroToMany;startArrow=ERone;endFill=1;startFill=0;exitX=0.998;exitY=0.405;exitDx=0;exitDy=0;exitPerimeter=0;" edge="1" parent="1" source="iqtrtNtOU-YQ3n1kmFNO-5">
          <mxGeometry width="100" height="100" relative="1" as="geometry">
            <mxPoint x="460.67999999999995" y="175.20000000000005" as="sourcePoint" />
            <mxPoint x="519.9999999999999" y="175" as="targetPoint" />
          </mxGeometry>
        </mxCell>
      </root>
    </mxGraphModel>
  </diagram>
</mxfile>
